# xmcd
#
# Track frame offsets:
#	150
#	14122
#	30780
#	50402
#	67617
#	83310
#	98752
#	114192
#	136855
#	155057
#	171440
#	194577
# Disc length: 2770 seconds
# Revision: 1
# Processed by: cddbd v1.5.1PL0 Copyright (c) Steve Scherf et al.
#
# Submitted via: libkcddb 0.10
#
DISCID=8c0ad00c
DTITLE=Erin McGrew - Garnet
DYEAR=1900
DGENRE=Unknown
TTITLE0=Garnet
TTITLE1=Cranberry Snow
TTITLE2=The Wonderful What Was
TTITLE3=Twenty-five Degrees (And The Beach Is Frozen)
TTITLE4=To An Unknown Soulmate
TTITLE5=Melinda
TTITLE6=Victorian Parlor
TTITLE7=Adam And Candy
TTITLE8=Masquerade
TTITLE9=Kelly Green Scarf
TTITLE10=Not Like You Think
TTITLE11=Optimystic
EXTD=
EXTT0=
EXTT1=
EXTT2=
EXTT3=
EXTT4=
EXTT5=
EXTT6=
EXTT7=
EXTT8=
EXTT9=
EXTT10=
EXTT11=
PLAYORDER=
